<svg xmlns="http://www.w3.org/2000/svg" width="2400" height="1350" viewBox="0 0 2400 1350" role="img" aria-label="Abstract warm glow with interlocking circles">
  <defs>
    <linearGradient id="g0" x1="0" y1="0" x2="1" y2="1">
      <stop offset="0" stop-color="#05070c"/>
      <stop offset="1" stop-color="#0b1020"/>
    </linearGradient>
    <radialGradient id="goldGlow" cx="30%" cy="24%" r="70%">
      <stop offset="0" stop-color="rgba(212,175,55,.26)"/>
      <stop offset="0.55" stop-color="rgba(212,175,55,.08)"/>
      <stop offset="1" stop-color="rgba(212,175,55,0)"/>
    </radialGradient>
    <radialGradient id="blueGlow" cx="80%" cy="18%" r="70%">
      <stop offset="0" stop-color="rgba(255,255,255,.08)"/>
      <stop offset="1" stop-color="rgba(120,180,255,0)"/>
    </radialGradient>
    <filter id="blur" x="-20%" y="-20%" width="140%" height="140%">
      <feGaussianBlur stdDeviation="8"/>
    </filter>
  </defs>

  <rect width="2400" height="1350" fill="url(#g0)"/>
  <rect width="2400" height="1350" fill="url(#goldGlow)"/>
  <rect width="2400" height="1350" fill="url(#blueGlow)"/>

  <g opacity="0.8"><path d="M 1669.2 797.0 Q 1138.2 464.9 146.8 64.0" stroke="rgba(243,210,122,0.066)" stroke-width="1.99" fill="none"/><path d="M 122.3 1362.2 Q 416.0 1163.9 1146.6 719.5" stroke="rgba(243,210,122,0.121)" stroke-width="1.98" fill="none"/><path d="M 1017.9 1263.0 Q 1295.7 1119.8 1559.0 1264.5" stroke="rgba(243,210,122,0.062)" stroke-width="1.60" fill="none"/><path d="M 406.7 635.1 Q 1171.6 548.9 2170.9 339.0" stroke="rgba(243,210,122,0.078)" stroke-width="2.08" fill="none"/><path d="M 675.6 949.7 Q 1705.2 685.2 2460.8 196.2" stroke="rgba(243,210,122,0.074)" stroke-width="1.36" fill="none"/><path d="M 465.3 205.7 Q 460.4 597.3 980.6 1060.8" stroke="rgba(243,210,122,0.068)" stroke-width="1.92" fill="none"/><path d="M 21.6 1173.8 Q 1108.6 834.3 1696.4 229.6" stroke="rgba(243,210,122,0.075)" stroke-width="1.85" fill="none"/><path d="M 1514.0 -57.2 Q 1220.9 643.4 702.1 1012.4" stroke="rgba(243,210,122,0.091)" stroke-width="1.03" fill="none"/><path d="M 112.3 1166.5 Q 1460.2 737.1 2332.9 522.7" stroke="rgba(243,210,122,0.107)" stroke-width="1.91" fill="none"/><path d="M 2027.1 1402.8 Q 1695.7 1063.8 1327.2 369.6" stroke="rgba(243,210,122,0.122)" stroke-width="1.90" fill="none"/><path d="M 2434.3 659.4 Q 1366.5 863.6 754.7 912.2" stroke="rgba(243,210,122,0.086)" stroke-width="1.29" fill="none"/><path d="M 1333.1 1188.1 Q 1609.9 845.5 1935.8 906.4" stroke="rgba(243,210,122,0.082)" stroke-width="1.36" fill="none"/><path d="M 1082.9 1100.5 Q 1154.1 322.0 1868.9 -52.7" stroke="rgba(243,210,122,0.081)" stroke-width="2.11" fill="none"/><path d="M 101.6 598.6 Q 596.9 413.3 1787.6 31.5" stroke="rgba(243,210,122,0.078)" stroke-width="1.07" fill="none"/></g>
  <g><circle cx="1942.2" cy="1330.7" r="4.0" fill="rgba(212,175,55,0.138)"/><circle cx="70.7" cy="296.0" r="2.3" fill="rgba(212,175,55,0.138)"/><circle cx="236.9" cy="846.8" r="5.6" fill="rgba(212,175,55,0.110)"/><circle cx="169.7" cy="529.9" r="5.8" fill="rgba(212,175,55,0.136)"/><circle cx="2347.1" cy="914.0" r="2.6" fill="rgba(212,175,55,0.120)"/><circle cx="543.2" cy="1207.3" r="4.2" fill="rgba(212,175,55,0.113)"/><circle cx="1887.3" cy="1096.1" r="4.1" fill="rgba(212,175,55,0.055)"/><circle cx="1361.2" cy="833.3" r="5.3" fill="rgba(212,175,55,0.106)"/><circle cx="391.2" cy="377.0" r="4.6" fill="rgba(212,175,55,0.099)"/><circle cx="1599.0" cy="1274.1" r="3.4" fill="rgba(212,175,55,0.110)"/><circle cx="498.9" cy="798.3" r="2.8" fill="rgba(212,175,55,0.094)"/><circle cx="1830.6" cy="411.7" r="2.4" fill="rgba(212,175,55,0.103)"/><circle cx="1913.4" cy="273.2" r="3.0" fill="rgba(212,175,55,0.086)"/><circle cx="224.8" cy="196.8" r="4.7" fill="rgba(212,175,55,0.097)"/><circle cx="520.1" cy="436.2" r="5.7" fill="rgba(212,175,55,0.088)"/><circle cx="1177.3" cy="5.3" r="4.2" fill="rgba(212,175,55,0.050)"/><circle cx="1505.9" cy="78.4" r="2.2" fill="rgba(212,175,55,0.056)"/><circle cx="17.3" cy="517.9" r="3.1" fill="rgba(212,175,55,0.084)"/><circle cx="1646.1" cy="1222.9" r="5.0" fill="rgba(212,175,55,0.120)"/><circle cx="1343.9" cy="733.6" r="3.0" fill="rgba(212,175,55,0.065)"/><circle cx="1784.1" cy="593.8" r="2.8" fill="rgba(212,175,55,0.112)"/><circle cx="795.1" cy="457.7" r="3.0" fill="rgba(212,175,55,0.062)"/><circle cx="1862.7" cy="122.5" r="2.3" fill="rgba(212,175,55,0.123)"/><circle cx="1023.9" cy="1247.6" r="4.6" fill="rgba(212,175,55,0.139)"/><circle cx="1902.2" cy="1320.2" r="5.8" fill="rgba(212,175,55,0.135)"/><circle cx="1233.8" cy="31.0" r="2.2" fill="rgba(212,175,55,0.058)"/><circle cx="793.3" cy="18.4" r="5.0" fill="rgba(212,175,55,0.077)"/><circle cx="2066.5" cy="22.8" r="2.2" fill="rgba(212,175,55,0.108)"/><circle cx="2150.7" cy="795.6" r="2.6" fill="rgba(212,175,55,0.106)"/><circle cx="550.4" cy="1054.5" r="2.6" fill="rgba(212,175,55,0.056)"/><circle cx="1043.2" cy="1187.0" r="4.5" fill="rgba(212,175,55,0.058)"/><circle cx="1614.3" cy="1199.8" r="6.0" fill="rgba(212,175,55,0.065)"/><circle cx="1235.0" cy="361.7" r="3.4" fill="rgba(212,175,55,0.091)"/><circle cx="1469.1" cy="959.9" r="2.6" fill="rgba(212,175,55,0.080)"/><circle cx="304.0" cy="225.5" r="2.0" fill="rgba(212,175,55,0.113)"/><circle cx="399.4" cy="517.8" r="3.0" fill="rgba(212,175,55,0.132)"/><circle cx="446.6" cy="781.8" r="4.1" fill="rgba(212,175,55,0.122)"/><circle cx="2154.4" cy="861.6" r="6.0" fill="rgba(212,175,55,0.055)"/></g>

  <g filter="url(#blur)" opacity="0.9">
    <circle cx="1752.0" cy="621.0" r="210" fill="rgba(255,255,255,.04)"/>
  </g>

  <g><circle cx="1752.0" cy="621.0" r="160" fill="none" stroke="rgba(212,175,55,0.180)" stroke-width="1.2"/><circle cx="1752.0" cy="621.0" r="215" fill="none" stroke="rgba(212,175,55,0.150)" stroke-width="1.2"/><circle cx="1752.0" cy="621.0" r="270" fill="none" stroke="rgba(212,175,55,0.120)" stroke-width="1.2"/><circle cx="1752.0" cy="621.0" r="325" fill="none" stroke="rgba(212,175,55,0.090)" stroke-width="1.2"/></g>

  <g>
    <rect x="1562.0" y="555.0" width="380" height="132" rx="26" fill="rgba(255,255,255,.05)" stroke="rgba(255,255,255,.10)"/>
    <text x="1752.0" y="613.0" text-anchor="middle" font-family="ui-sans-serif,system-ui" font-size="50" fill="rgba(245,247,255,.92)" letter-spacing="2">W3</text>
    <text x="1752.0" y="655.0" text-anchor="middle" font-family="ui-sans-serif,system-ui" font-size="22" fill="rgba(245,247,255,.60)" letter-spacing="1">w3.mom</text>
  </g>

  <g opacity="0.9">
    <circle cx="432.0" cy="1053.0" r="280" fill="rgba(212,175,55,.06)"/>
    <circle cx="432.0" cy="1053.0" r="279" fill="none" stroke="rgba(255,255,255,.06)"/>
  </g>
</svg>